<svg width="379" height="206" viewBox="0 0 379 206" fill="none" xmlns="http://www.w3.org/2000/svg">
<path d="M31.1552 71.6704C27.1648 71.6704 23.2208 71.16 19.3232 70.1392C15.5184 69.1184 11.9456 67.68 8.6048 65.824C5.3568 63.8752 2.5728 61.648 0.2528 59.1424L12.3632 46.8928C14.5904 49.3056 17.2352 51.208 20.2976 52.6C23.36 53.8992 26.7008 54.5488 30.32 54.5488C32.8256 54.5488 34.728 54.1776 36.0272 53.4352C37.4192 52.6928 38.1152 51.672 38.1152 50.3728C38.1152 48.7024 37.28 47.4496 35.6096 46.6144C34.032 45.6864 31.9904 44.8976 29.4848 44.248C26.9792 43.5056 24.3344 42.7168 21.5504 41.8816C18.7664 41.0464 16.1216 39.8864 13.616 38.4016C11.1104 36.9168 9.0688 34.8752 7.4912 32.2768C5.9136 29.5856 5.1248 26.1984 5.1248 22.1152C5.1248 17.7536 6.2384 13.9952 8.4656 10.84C10.6928 7.592 13.848 5.04 17.9312 3.184C22.0144 1.328 26.7936 0.400002 32.2688 0.400002C38.0224 0.400002 43.312 1.4208 48.1376 3.4624C53.056 5.4112 57.0464 8.3344 60.1088 12.232L47.9984 24.4816C45.864 21.976 43.4512 20.2128 40.76 19.192C38.1616 18.1712 35.6096 17.6608 33.104 17.6608C30.6912 17.6608 28.8816 18.032 27.6752 18.7744C26.4688 19.424 25.8656 20.3984 25.8656 21.6976C25.8656 23.0896 26.6544 24.2032 28.232 25.0384C29.8096 25.8736 31.8512 26.616 34.3568 27.2656C36.8624 27.9152 39.5072 28.704 42.2912 29.632C45.0752 30.56 47.72 31.8128 50.2256 33.3904C52.7312 34.968 54.7728 37.1024 56.3504 39.7936C57.928 42.392 58.7168 45.8256 58.7168 50.0944C58.7168 56.6832 56.2112 61.9264 51.2 65.824C46.2816 69.7216 39.6 71.6704 31.1552 71.6704ZM114.955 70V31.4416C114.955 27.9152 113.841 25.0848 111.614 22.9504C109.479 20.7232 106.742 19.6096 103.401 19.6096C101.081 19.6096 99.0395 20.12 97.2763 21.1408C95.5131 22.0688 94.1211 23.4608 93.1003 25.3168C92.0795 27.08 91.5691 29.1216 91.5691 31.4416L83.3563 27.4048C83.3563 22.1152 84.5163 17.4752 86.8363 13.4848C89.1563 9.4944 92.3579 6.432 96.4411 4.2976C100.617 2.0704 105.303 0.956798 110.5 0.956798C115.511 0.956798 119.919 2.1632 123.724 4.576C127.622 6.896 130.684 10.0048 132.911 13.9024C135.139 17.8 136.252 22.0688 136.252 26.7088V70H114.955ZM70.2715 70V2.3488H91.5691V70H70.2715ZM178.188 71.392C171.971 71.392 166.403 69.8608 161.484 66.7984C156.659 63.736 152.808 59.56 149.931 54.2704C147.147 48.9808 145.755 42.9488 145.755 36.1744C145.755 29.4 147.147 23.368 149.931 18.0784C152.808 12.7888 156.659 8.6128 161.484 5.5504C166.403 2.488 171.971 0.956798 178.188 0.956798C182.736 0.956798 186.819 1.8384 190.438 3.6016C194.15 5.3648 197.166 7.824 199.486 10.9792C201.806 14.0416 203.105 17.568 203.384 21.5584V50.7904C203.105 54.7808 201.806 58.3536 199.486 61.5088C197.259 64.5712 194.289 66.984 190.577 68.7472C186.865 70.5104 182.736 71.392 178.188 71.392ZM182.504 52.1824C187.051 52.1824 190.716 50.6976 193.5 47.728C196.284 44.6656 197.676 40.8144 197.676 36.1744C197.676 33.0192 197.027 30.2352 195.728 27.8224C194.521 25.4096 192.758 23.5536 190.438 22.2544C188.211 20.8624 185.612 20.1664 182.643 20.1664C179.673 20.1664 177.028 20.8624 174.708 22.2544C172.481 23.5536 170.672 25.4096 169.28 27.8224C167.98 30.2352 167.331 33.0192 167.331 36.1744C167.331 39.2368 167.98 41.9744 169.28 44.3872C170.579 46.8 172.388 48.7024 174.708 50.0944C177.028 51.4864 179.627 52.1824 182.504 52.1824ZM196.841 70V51.7648L200.043 35.3392L196.841 18.9136V2.3488H217.721V70H196.841ZM271.693 71.392C267.146 71.392 262.97 70.5104 259.165 68.7472C255.36 66.984 252.251 64.5712 249.838 61.5088C247.426 58.3536 246.034 54.7808 245.662 50.7904V22.2544C246.034 18.264 247.426 14.6448 249.838 11.3968C252.251 8.1488 255.36 5.5968 259.165 3.7408C262.97 1.8848 267.146 0.956798 271.693 0.956798C278.096 0.956798 283.757 2.488 288.675 5.5504C293.686 8.6128 297.584 12.7888 300.368 18.0784C303.245 23.368 304.683 29.4 304.683 36.1744C304.683 42.9488 303.245 48.9808 300.368 54.2704C297.584 59.56 293.686 63.736 288.675 66.7984C283.757 69.8608 278.096 71.392 271.693 71.392ZM267.795 52.1824C270.858 52.1824 273.502 51.4864 275.73 50.0944C278.05 48.7024 279.859 46.8 281.158 44.3872C282.458 41.9744 283.107 39.2368 283.107 36.1744C283.107 33.0192 282.458 30.2352 281.158 27.8224C279.859 25.4096 278.05 23.5536 275.73 22.2544C273.502 20.8624 270.904 20.1664 267.934 20.1664C264.965 20.1664 262.32 20.8624 260 22.2544C257.773 23.5536 256.01 25.4096 254.71 27.8224C253.411 30.2352 252.762 33.0192 252.762 36.1744C252.762 39.2368 253.365 41.9744 254.571 44.3872C255.87 46.8 257.68 48.7024 260 50.0944C262.32 51.4864 264.918 52.1824 267.795 52.1824ZM232.717 98.536V2.3488H254.014V19.7488L250.534 36.1744L253.736 52.6V98.536H232.717ZM127.399 178.67C123.409 178.67 119.465 178.16 115.567 177.139C111.762 176.118 108.189 174.68 104.849 172.824C101.601 170.875 98.8166 168.648 96.4966 166.142L108.607 153.893C110.834 156.306 113.479 158.208 116.541 159.6C119.604 160.899 122.945 161.549 126.564 161.549C129.069 161.549 130.972 161.178 132.271 160.435C133.663 159.693 134.359 158.672 134.359 157.373C134.359 155.702 133.524 154.45 131.853 153.614C130.276 152.686 128.234 151.898 125.729 151.248C123.223 150.506 120.578 149.717 117.794 148.882C115.01 148.046 112.365 146.886 109.86 145.402C107.354 143.917 105.313 141.875 103.735 139.277C102.157 136.586 101.369 133.198 101.369 129.115C101.369 124.754 102.482 120.995 104.709 117.84C106.937 114.592 110.092 112.04 114.175 110.184C118.258 108.328 123.037 107.4 128.513 107.4C134.266 107.4 139.556 108.421 144.381 110.462C149.3 112.411 153.29 115.334 156.353 119.232L144.242 131.482C142.108 128.976 139.695 127.213 137.004 126.192C134.405 125.171 131.853 124.661 129.348 124.661C126.935 124.661 125.125 125.032 123.919 125.774C122.713 126.424 122.109 127.398 122.109 128.698C122.109 130.09 122.898 131.203 124.476 132.038C126.053 132.874 128.095 133.616 130.601 134.266C133.106 134.915 135.751 135.704 138.535 136.632C141.319 137.56 143.964 138.813 146.469 140.39C148.975 141.968 151.017 144.102 152.594 146.794C154.172 149.392 154.961 152.826 154.961 157.094C154.961 163.683 152.455 168.926 147.444 172.824C142.525 176.722 135.844 178.67 127.399 178.67ZM187.395 177.278L159.555 109.349H182.523L200.202 163.219H191.71L209.806 109.349H232.774L203.821 177.278H187.395ZM169.995 205.536L190.318 161.688L203.821 177.278L191.85 205.536H169.995ZM283.925 177V138.442C283.925 134.915 282.811 132.085 280.584 129.95C278.45 127.723 275.712 126.61 272.371 126.61C270.051 126.61 268.01 127.12 266.247 128.141C264.483 129.069 263.091 130.461 262.071 132.317C261.05 134.08 260.539 136.122 260.539 138.442L252.327 134.405C252.327 129.115 253.487 124.475 255.807 120.485C258.127 116.494 261.328 113.432 265.411 111.298C269.587 109.07 274.274 107.957 279.471 107.957C284.482 107.957 288.89 109.163 292.695 111.576C296.592 113.896 299.655 117.005 301.882 120.902C304.109 124.8 305.223 129.069 305.223 133.709V177H283.925ZM239.242 177V109.349H260.539V177H239.242ZM351.613 178.531C344.653 178.531 338.343 177 332.682 173.938C327.021 170.875 322.567 166.653 319.319 161.27C316.071 155.888 314.447 149.856 314.447 143.174C314.447 136.4 316.071 130.368 319.319 125.078C322.66 119.696 327.16 115.474 332.821 112.411C338.482 109.349 344.839 107.818 351.892 107.818C357.181 107.818 362.007 108.746 366.368 110.602C370.823 112.365 374.767 115.056 378.2 118.675L364.559 132.317C362.981 130.554 361.125 129.254 358.991 128.419C356.949 127.584 354.583 127.166 351.892 127.166C348.829 127.166 346.092 127.862 343.679 129.254C341.359 130.554 339.503 132.41 338.111 134.822C336.812 137.142 336.162 139.88 336.162 143.035C336.162 146.19 336.812 148.974 338.111 151.387C339.503 153.8 341.405 155.702 343.818 157.094C346.231 158.486 348.922 159.182 351.892 159.182C354.676 159.182 357.135 158.718 359.269 157.79C361.496 156.77 363.399 155.378 364.976 153.614L378.479 167.256C374.952 170.968 370.962 173.798 366.508 175.747C362.053 177.603 357.088 178.531 351.613 178.531Z" fill="white"/>
<path d="M69.8528 177L24.752 127.445C21.2256 123.547 18.6736 119.882 17.096 116.448C15.5184 112.922 14.7296 109.07 14.7296 104.894C14.7296 99.8832 15.9824 95.2896 18.488 91.1136C21.0864 86.8448 24.5664 83.4576 28.928 80.952C33.3824 78.3536 38.5328 77.0544 44.3792 77.0544C48.9264 77.0544 52.9632 77.7504 56.4896 79.1424C60.016 80.4416 63.0784 82.1584 65.6768 84.2928C68.2752 86.3344 70.2704 88.5152 71.6624 90.8352L57.464 104.338C55.608 101.832 53.6592 99.9296 51.6176 98.6304C49.6688 97.3312 47.3488 96.6816 44.6576 96.6816C41.8736 96.6816 39.5536 97.5168 37.6976 99.1872C35.9344 100.765 35.0528 102.76 35.0528 105.173C35.0528 107.214 35.4704 109.024 36.3056 110.602C37.2336 112.179 38.5328 113.942 40.2032 115.891L94.7696 177H69.8528ZM37.5584 178.531C30.8768 178.531 25.0304 177.232 20.0192 174.634C15.1008 171.942 11.2496 168.323 8.4656 163.776C5.7744 159.136 4.4288 153.986 4.4288 148.325C4.4288 142.2 6.0528 136.771 9.3008 132.038C12.5488 127.213 17.4208 123.315 23.9168 120.346L32.9648 134.126C30.1808 135.426 28.0928 137.142 26.7008 139.277C25.3088 141.411 24.6128 143.963 24.6128 146.933C24.6128 149.346 25.1232 151.48 26.144 153.336C27.2576 155.099 28.8352 156.491 30.8768 157.512C32.9184 158.533 35.3312 159.043 38.1152 159.043C41.2704 159.043 43.9616 158.394 46.1888 157.094C48.5088 155.702 50.4576 153.8 52.0352 151.387L66.3728 166.142C64.7952 168.184 62.5216 170.179 59.552 172.128C56.6752 173.984 53.3344 175.515 49.5296 176.722C45.8176 177.928 41.8272 178.531 37.5584 178.531Z" fill="#22D3EE"/>
</svg>
