<svg width="30" height="30" viewBox="0 0 893 968" fill="none" xmlns="http://www.w3.org/2000/svg">
<path d="M685.706 857.769L241.968 518.169C207.239 491.428 180.85 465.142 162.801 439.312C144.614 412.721 132.417 382.291 126.21 348.024C118.762 306.904 122.215 267.348 136.568 229.357C151.545 190.467 175.066 157.5 207.132 130.457C239.821 102.515 280.153 84.1989 328.126 75.5092C365.439 68.7506 399.598 68.4617 430.604 74.6427C461.471 80.0621 489.152 89.5979 513.646 103.25C538.002 116.141 557.616 131.07 572.486 148.038L476.048 279.938C457.094 262.137 438.275 249.423 419.591 241.796C401.669 234.032 381.666 232.15 359.583 236.15C336.739 240.288 318.943 250.59 306.196 267.055C294.072 282.621 289.804 300.303 293.39 320.102C296.424 336.855 302.541 351.083 311.739 362.787C321.699 374.353 334.98 386.89 351.584 400.399L890.166 820.734L685.706 857.769ZM422.985 918.333C368.158 928.264 318.253 926.293 273.27 912.42C228.912 897.647 191.931 873.673 162.327 840.498C133.348 806.424 114.651 766.161 106.237 719.711C97.1337 669.453 102.391 622.492 122.008 578.828C141.488 534.403 175.673 495.18 224.563 461.157L319.291 560.789C298.377 575.588 283.796 592.779 275.546 612.362C267.296 631.945 265.378 653.921 269.792 678.288C273.378 698.087 280.738 714.843 291.873 728.555C303.632 741.368 318.646 750.446 336.916 755.788C355.186 761.129 375.743 761.731 398.588 757.594C424.479 752.904 445.596 743.573 461.941 729.602C478.909 714.732 492.073 696.225 501.432 674.081L641.013 773.847C631.102 792.945 615.411 812.696 593.94 833.101C573.092 852.607 547.955 870.137 518.527 885.691C489.86 901.108 458.013 911.989 422.985 918.333Z" fill="#E0F2FE"/>
</svg>
